<svg width="13" height="13" viewBox="0 0 13 13" fill="none" xmlns="http://www.w3.org/2000/svg">
<path d="M5.15367 1.5791C4.82122 1.86242 4.40787 2.03363 3.97246 2.06838C2.95639 2.14946 2.14955 2.95631 2.06846 3.97238C2.03372 4.40779 1.8625 4.82114 1.57919 5.15359C0.918052 5.92939 0.918052 7.07044 1.57919 7.84625C1.8625 8.1787 2.03372 8.59205 2.06846 9.02746C2.14955 10.0435 2.95639 10.8504 3.97246 10.9315C4.40787 10.9662 4.82122 11.1374 5.15367 11.4207C5.92948 12.0819 7.07053 12.0819 7.84633 11.4207C8.17878 11.1374 8.59213 10.9662 9.02754 10.9315C10.0436 10.8504 10.8505 10.0435 10.9315 9.02746C10.9663 8.59205 11.1375 8.1787 11.4208 7.84625C12.082 7.07044 12.082 5.92939 11.4208 5.15359C11.1375 4.82114 10.9663 4.40779 10.9315 3.97238C10.8505 2.95631 10.0436 2.14946 9.02754 2.06838C8.59213 2.03363 8.17878 1.86242 7.84633 1.5791C7.07053 0.917968 5.92948 0.917968 5.15367 1.5791Z" fill="#1570EF"/>
<path d="M4.875 6.49992L5.95833 7.58325L8.39583 5.14575" stroke="white" stroke-linecap="round" stroke-linejoin="round"/>
</svg>
